<svg xmlns="http://www.w3.org/2000/svg" xmlns:xlink="http://www.w3.org/1999/xlink" width="500" zoomAndPan="magnify" viewBox="0 0 375 374.999991" height="500" preserveAspectRatio="xMidYMid meet" version="1.0"><defs><clipPath id="a34f2b5786"><path d="M 91.570312 112.679688 L 351.539062 112.679688 L 351.539062 261.988281 L 91.570312 261.988281 Z M 91.570312 112.679688 " clip-rule="nonzero"/></clipPath></defs><path fill="#6ac5fa" d="M 27.75 0 L 347.25 0 C 354.609375 0 361.667969 2.921875 366.871094 8.128906 C 372.078125 13.332031 375 20.390625 375 27.75 L 375 347.25 C 375 354.609375 372.078125 361.667969 366.871094 366.871094 C 361.667969 372.078125 354.609375 375 347.25 375 L 27.75 375 C 20.390625 375 13.332031 372.078125 8.128906 366.871094 C 2.921875 361.667969 0 354.609375 0 347.25 L 0 27.75 C 0 20.390625 2.921875 13.332031 8.128906 8.128906 C 13.332031 2.921875 20.390625 0 27.75 0 " fill-opacity="1" fill-rule="nonzero"/><g clip-path="url(#a34f2b5786)"><path fill="#000000" d="M 181.371094 215.167969 L 147.339844 209.664062 L 168.785156 182.0625 C 179.902344 191.667969 181.285156 203.195312 181.371094 215.167969 Z M 190.730469 217.1875 C 190.785156 215.992188 190.980469 214.066406 190.980469 212.71875 C 190.980469 199.0625 186.519531 185.789062 174.417969 174.757812 L 187.023438 159.804688 L 206.53125 218.773438 L 190.730469 217.183594 Z M 265.617188 158.496094 L 264.535156 155.214844 L 195.042969 155.125 L 213.53125 210.644531 L 214.328125 204.851562 L 212.199219 204.851562 L 212.46875 201.167969 L 221.769531 201.167969 L 221.5 204.589844 L 219.109375 204.589844 L 218.578125 210.910156 C 218.578125 210.910156 265.347656 158.753906 265.613281 158.492188 Z M 296.394531 211.832031 C 287.0625 204.488281 279.796875 197.488281 274.558594 183.480469 C 266.292969 190.910156 261.574219 201.660156 261.574219 212.71875 C 261.574219 234.679688 279.65625 252.59375 301.824219 252.59375 C 323.988281 252.59375 342.070312 234.679688 342.070312 212.71875 C 342.070312 190.753906 323.988281 172.84375 301.824219 172.84375 C 294.746094 172.84375 287.515625 174.867188 281.683594 178.277344 C 285.632812 190.636719 289.472656 197.007812 301.617188 206.695312 C 304.566406 206.820312 306.808594 209.164062 306.808594 211.960938 C 306.808594 214.863281 304.417969 217.226562 301.492188 217.226562 C 298.566406 217.226562 296.394531 214.863281 296.394531 211.832031 Z M 179.949219 223.636719 C 175.394531 240.445312 159.203125 252.59375 141.28125 252.59375 C 119.113281 252.59375 101.03125 234.683594 101.03125 212.71875 C 101.03125 190.753906 119.113281 172.839844 141.28125 172.839844 C 148.355469 172.839844 156.539062 174.496094 162.511719 177.960938 L 140.667969 206.695312 C 137.996094 206.738281 135.671875 209.101562 135.671875 211.960938 C 135.671875 214.863281 138.058594 217.226562 140.984375 217.226562 C 141.796875 217.226562 142.644531 217.023438 143.363281 216.6875 Z M 278.816406 169.046875 L 264.558594 130.078125 L 269.074219 122.441406 L 260.039062 112.699219 L 240.640625 112.699219 L 240.375 118.226562 L 257.382812 118.226562 L 260.835938 121.914062 L 256.851562 129.023438 L 261.863281 146.625 L 192.246094 146.625 L 191.183594 143.40625 C 196.777344 142.683594 206.429688 139.269531 208.734375 137.285156 C 211.039062 135.300781 209.019531 133.476562 206.394531 133.390625 C 192.652344 132.8125 172.238281 131.671875 168.363281 131.65625 C 164.484375 131.640625 164.085938 133.570312 166.683594 136.386719 C 169.277344 139.199219 171.546875 141.730469 181.382812 143.242188 L 184.039062 150.351562 L 167.566406 170.570312 C 159.800781 165.898438 150.410156 163.46875 141.285156 163.46875 C 113.90625 163.46875 91.582031 185.59375 91.582031 212.71875 C 91.582031 239.839844 113.910156 261.964844 141.285156 261.964844 C 163.804688 261.964844 183.609375 246.574219 189.429688 225.304688 L 204.570312 228 C 205.21875 229.769531 206.726562 231.125 208.53125 232.183594 L 205.832031 244.875 L 202.378906 244.875 L 202.109375 248.296875 L 213.007812 248.820312 L 213.007812 245.136719 L 210.347656 245.136719 L 213.640625 232.457031 C 218.539062 231.660156 221.105469 227.507812 219.644531 223.386719 L 269.097656 167.96875 L 271.3125 173.917969 C 259.308594 183.28125 252.125 197.710938 252.125 212.714844 C 252.125 239.839844 274.453125 261.960938 301.828125 261.960938 C 329.203125 261.960938 351.535156 239.839844 351.535156 212.714844 C 351.535156 185.589844 329.203125 163.46875 301.828125 163.46875 C 293.867188 163.46875 285.714844 165.394531 278.816406 169.042969 Z M 278.816406 169.046875 " fill-opacity="1" fill-rule="evenodd"/></g><path stroke-linecap="butt" transform="matrix(4.37308, 0, 0, 4.503983, 27.003099, 155.873721)" fill="none" stroke-linejoin="miter" d="M 0.000184603 0.000283979 L 22.49577 0.000283979 " stroke="#000000" stroke-width="1" stroke-opacity="1" stroke-miterlimit="4"/><path stroke-linecap="butt" transform="matrix(4.369707, 0, 0, 4.503983, 23.895272, 181.158547)" fill="none" stroke-linejoin="miter" d="M -0.000169568 0.000357227 L 12.663365 0.000357227 " stroke="#000000" stroke-width="1" stroke-opacity="1" stroke-miterlimit="4"/><path stroke-linecap="butt" transform="matrix(4.334081, 0, 0, 4.503983, 28.557011, 204.208638)" fill="none" stroke-linejoin="miter" d="M 0.000365237 -0.000356693 L 5.270189 -0.000356693 " stroke="#000000" stroke-width="1" stroke-opacity="1" stroke-miterlimit="4"/><path stroke-linecap="butt" transform="matrix(4.37308, 0, 0, 4.503983, 28.557011, 230.434686)" fill="none" stroke-linejoin="miter" d="M 0.000361979 -0.000242612 L 11.248155 -0.000242612 " stroke="#000000" stroke-width="1" stroke-opacity="1" stroke-miterlimit="4"/><path stroke-linecap="butt" transform="matrix(4.391197, 0, 0, 4.391383, 27.003099, 260.124329)" fill="none" stroke-linejoin="miter" d="M 0.000183841 0.000152909 L 73.803742 0.000152909 " stroke="#000000" stroke-width="1" stroke-opacity="1" stroke-miterlimit="4"/></svg>